<?xml version="1.0" encoding="utf-8"?>
<!-- Generator: Adobe Illustrator 22.1.0, SVG Export Plug-In . SVG Version: 6.00 Build 0)  -->
<svg version="1.1" id="Layer_1" xmlns="http://www.w3.org/2000/svg" xmlns:xlink="http://www.w3.org/1999/xlink" x="0px" y="0px"
	 viewBox="0 0 420 120" style="enable-background:new 0 0 420 120;" xml:space="preserve">
<style type="text/css">
	.st0{fill:#FFF;}
	.st1{fill:#FFF;}
</style>
<path class="st0" d="M145.4,90.7l16.1-75.2c0,0,8.5,0,9.1,0c1.5,0.1,6.5-0.4,5.6,4.2c-1,5.3-6.3,31.4-6.3,31.4l0.8,1L186.7,32
	l14.5,0.1l-19.1,23.6l8.5,30.8c0,0,1.8,4.1-2.2,4.1s-13.4,0-13.4,0l-4.5-21.3c0,0-0.5-2.1-1.2-1.5c-0.7,0.7-4.2,4.5-4.2,4.5
	l-3.7,18.3H145.4z"/>
<path class="st0" d="M230,30.4c-19.6,0-24.7,8-26.9,15.8c-2.2,7.8-6.4,29.6-6.4,29.6s-2.8,14.4,11.5,16.1c15.8,1,30.6-1.8,33.2-20.7
	c-8.9-0.1-15.6-0.5-15.9-0.1c-0.3,0.4-0.7,10.6-8.3,10.2c-7.5-0.4-4.1-11.3-3.8-12.4c0.8-2.8,1.5-5.6,2.8-5.6h27.4l3.8-18
	C247.3,45.4,250.9,30.4,230,30.4z M230.1,51.7c-0.3,1.6-1.4,1.6-1.4,1.6h-10.8c-0.8,0-0.6-1.2-0.6-1.2s1.6-12.2,8.7-11.7
	C233.2,40.9,230.5,49.8,230.1,51.7z"/>
<path class="st0" d="M311.8,30.5c-19.6,0-24.7,8-26.9,15.8s-6.4,29.6-6.4,29.6s-2.8,14.4,11.5,16.1c15.8,1,30.6-1.8,33.2-20.7
	c-8.9-0.1-15.6-0.5-15.9-0.1c-0.3,0.4-0.7,10.6-8.3,10.2c-7.5-0.4-4.1-11.3-3.8-12.4c0.8-2.8,1.5-5.6,2.8-5.6h27.4l3.8-18
	C329.1,45.5,332.7,30.5,311.8,30.5z M311.9,51.8c-0.3,1.6-1.4,1.6-1.4,1.6h-10.8c-0.8,0-0.6-1.2-0.6-1.2s1.6-12.2,8.7-11.7
	S312.3,49.9,311.9,51.8z"/>
<path class="st1" d="M373.7,32c-5.8-0.4-9.8,0-9.8,0s-0.9,6.3-1.1,6.7s-1.2,1.1-2.3-1.3c-1.1-2.4-3.6-9.4-15.9-6
	c-12.4,3.4-13.7,22.4-17.5,40.6c-0.5,2.7-1.6,12.5,5.2,15.8c8.1,4,17.6-3.6,18.6-5.2c0.8,0.1,1.4,0.7,1.4,0.7L349.6,95
	c0,0-2.1,6.4-7,6.1c-4.9-0.4-6.1-2.3-5.2-5.8c-8.7,0.2-15.5-0.1-15.5-0.1s-2.4,9.2,3.9,13c6.4,3.8,16.6,3.3,20.6,2.4
	c4-1,15.2-2.5,18.4-15s12.3-57.1,12.4-58.1C377.4,36.5,378.6,32.3,373.7,32z M358.7,50.4c0,0-3.6,17.3-4,19.4c-0.4,2.1-3,7-7.4,6.5
	c-4.4-0.4-4.4-5.2-3.7-8.3c0.7-3.1,4-18.3,4-18.3s2.1-7,6.4-6.7S359.4,47,358.7,50.4z"/>
<path class="st0" d="M52.8,32.1h5.1c0,0,1.6,0.4,2-1.4C60.3,29,63,16.2,63,15.2c1.8-0.4,9,0,10.3,0s3.2,0.1,3.9,1.2
	c1.2,1.7,1.4,2.8-1.4,13.4c0,0-1.3,2.6,0.5,2.6c1.8,0,7,0,7,0l-2.1,11h-7.4c0,0-1,0.1-1.2,1.1s-6.5,30.6-6.5,30.6s-1.2,4.5,2.3,4.7
	c3.5,0.2,5.1-0.4,5.1-0.4l-1.8,7.7c0,0-0.6,4.1-6.2,4.3c-5.6,0.2-7.3,0-7.3,0s-10-0.5-9.1-9.5c0.6-5.6,7.8-36.7,7.8-36.7
	s0.6-2-0.8-2c-1.5,0-5.6,0-5.6,0L52.8,32.1z"/>
<polygon class="st0" points="88.1,31.7 75.7,90.5 91.6,90.5 103.9,31.7 "/>
<polygon class="st0" points="90.2,23.1 88.9,28.1 104.7,28.1 105.7,23 "/>
<path class="st0" d="M108.1,46.8l-6.4,30.6c0,0-2.7,14.1,12.1,14.9s25.7-1.9,29.4-14.1c3.7-12.1,3-10.7,3-10.7l-15-0.1
	c0,0-1.8,15-8.8,14.3s-4.5-8-4.5-8l5.7-26.4c0,0,1.3-6.5,6.8-6.1c5.4,0.4,4.8,5.6,3.5,11.7c2.7,0,14.9,0.4,14.9,0.4s3.8-11.4,0-16.4
	s-6.9-6.2-17.5-6.5S110.8,34,108.1,46.8z"/>
<path class="st0" d="M252.9,32.1h5.1c0,0,1.6,0.4,2-1.4s3.2-14.6,3.2-15.6c1.8-0.4,9,0,10.3,0c1.2,0,3.2,0.1,3.9,1.2
	c1.2,1.7,1.4,2.8-1.4,13.4c0,0-1.3,2.6,0.5,2.6c1.8,0,7,0,7,0l-2.1,11h-7.4c0,0-1,0.1-1.2,1.1s-6.5,30.6-6.5,30.6s-1.2,4.5,2.3,4.7
	s5.1-0.4,5.1-0.4l-1.8,7.7c0,0-0.6,4.1-6.2,4.3c-5.6,0.2-7.3,0-7.3,0s-10-0.5-9.1-9.5c0.6-5.6,7.8-36.7,7.8-36.7s0.6-2-0.8-2
	c-1.5,0-5.6,0-5.6,0L252.9,32.1z"/>
</svg>
